<?xml version="1.0" encoding="UTF-8"?>
<svg xmlns="http://www.w3.org/2000/svg" xmlns:xlink="http://www.w3.org/1999/xlink" width="24px" height="24px" viewBox="0 0 24 24" version="1.1">
<g id="surface1">
<path style=" stroke:none;fill-rule:nonzero;fill:rgb(9.803922%,11.372549%,22.745098%);fill-opacity:1;" d="M 12 0 C 18.625 0 24 5.371094 24 11.992188 C 24.003906 13.742188 23.621094 15.472656 22.882812 17.054688 L 23.9375 22.09375 C 24.207031 23.390625 23.378906 24.222656 22.078125 23.949219 L 17.046875 22.878906 C 15.464844 23.613281 13.742188 23.992188 12 23.988281 C 5.375 23.988281 0 18.617188 0 11.992188 C 0 5.371094 5.375 0 12 0 Z M 12 2.398438 C 6.699219 2.398438 2.398438 6.699219 2.398438 12 C 2.398438 17.300781 6.699219 21.601562 12 21.601562 C 13.417969 21.601562 14.78125 21.296875 16.035156 20.710938 L 16.761719 20.378906 L 21.328125 21.351562 L 20.371094 16.773438 L 20.707031 16.050781 C 21.296875 14.78125 21.605469 13.398438 21.601562 12 C 21.601562 6.699219 17.300781 2.398438 12 2.398438 Z M 12 10.199219 C 12.992188 10.199219 13.800781 11.007812 13.800781 12 C 13.800781 12.992188 12.992188 13.800781 12 13.800781 C 11.007812 13.800781 10.199219 12.992188 10.199219 12 C 10.199219 11.007812 11.007812 10.199219 12 10.199219 Z M 7.199219 10.199219 C 8.195312 10.199219 9 11.007812 9 12 C 9 12.992188 8.195312 13.800781 7.199219 13.800781 C 6.207031 13.800781 5.398438 12.992188 5.398438 12 C 5.398438 11.007812 6.207031 10.199219 7.199219 10.199219 Z M 16.800781 10.199219 C 17.792969 10.199219 18.601562 11.007812 18.601562 12 C 18.601562 12.992188 17.792969 13.800781 16.800781 13.800781 C 15.804688 13.800781 15 12.992188 15 12 C 15 11.007812 15.804688 10.199219 16.800781 10.199219 Z M 16.800781 10.199219 "/>
</g>
</svg>
