<?xml version="1.0" encoding="UTF-8"?>
<svg xmlns="http://www.w3.org/2000/svg" xmlns:xlink="http://www.w3.org/1999/xlink" width="21px" height="20px" viewBox="0 0 21 20" version="1.1">
<g id="surface1">
<path style=" stroke:none;fill-rule:nonzero;fill:rgb(0%,0%,0%);fill-opacity:1;" d="M 7.46875 0.046875 C 6.585938 0.078125 5.703125 0.203125 5.105469 0.378906 C 3.363281 0.894531 1.933594 2.28125 1.519531 3.851562 C 1.277344 4.785156 1.347656 5.824219 1.707031 6.609375 C 1.886719 7.003906 2.078125 7.28125 2.398438 7.617188 C 3.40625 8.671875 4.753906 9.164062 6.378906 9.070312 C 6.609375 9.054688 6.804688 9.046875 6.804688 9.050781 C 6.816406 9.0625 6.6875 9.476562 6.632812 9.601562 C 6.5625 9.773438 6.539062 10.089844 6.578125 10.324219 C 6.648438 10.738281 6.878906 11.230469 7.222656 11.691406 C 7.28125 11.769531 7.328125 11.839844 7.328125 11.851562 C 7.328125 11.859375 7.234375 11.871094 7.121094 11.871094 C 6.289062 11.871094 5.039062 12.042969 4.050781 12.292969 C 3.296875 12.484375 2.917969 12.617188 2.410156 12.871094 C 1.53125 13.304688 0.914062 13.855469 0.519531 14.558594 C 0.113281 15.28125 -0.0507812 15.9375 0.0195312 16.585938 C 0.0703125 17.054688 0.195312 17.414062 0.429688 17.773438 C 0.902344 18.488281 1.601562 19.035156 2.480469 19.386719 C 3.070312 19.617188 3.933594 19.824219 4.734375 19.929688 C 5.175781 19.984375 6.511719 19.984375 7.039062 19.929688 C 8.71875 19.746094 10.019531 19.261719 11.058594 18.414062 C 11.304688 18.214844 11.75 17.765625 11.929688 17.542969 C 12.644531 16.644531 12.945312 15.597656 12.804688 14.515625 C 12.699219 13.726562 12.296875 12.929688 11.667969 12.265625 C 11.371094 11.949219 11.054688 11.679688 10.414062 11.1875 C 9.507812 10.488281 9.265625 10.242188 9.113281 9.863281 C 8.96875 9.507812 9.074219 9.023438 9.375 8.65625 C 9.523438 8.464844 9.953125 8.042969 10.507812 7.53125 C 11.121094 6.96875 11.308594 6.722656 11.542969 6.164062 C 12.003906 5.0625 11.96875 3.84375 11.449219 2.660156 C 11.167969 2.023438 10.734375 1.488281 10.210938 1.125 L 10 0.976562 L 11.691406 0.976562 L 12.527344 0.507812 C 12.984375 0.25 13.363281 0.0351562 13.371094 0.03125 C 13.386719 0.015625 7.910156 0.0273438 7.46875 0.046875 Z M 6.882812 0.953125 C 7.117188 1.015625 7.320312 1.105469 7.496094 1.226562 C 7.679688 1.347656 8.066406 1.71875 8.257812 1.953125 C 8.929688 2.773438 9.386719 3.960938 9.515625 5.226562 C 9.554688 5.59375 9.53125 6.273438 9.472656 6.546875 C 9.261719 7.539062 8.753906 8.105469 7.902344 8.3125 C 7.613281 8.378906 6.976562 8.378906 6.691406 8.308594 C 6.171875 8.183594 5.832031 8.007812 5.402344 7.640625 C 4.785156 7.113281 4.335938 6.378906 4.007812 5.363281 C 3.703125 4.410156 3.636719 3.679688 3.792969 2.957031 C 3.847656 2.695312 3.90625 2.523438 4.039062 2.25 C 4.417969 1.457031 5.015625 1.007812 5.828125 0.914062 C 6.113281 0.878906 6.695312 0.902344 6.882812 0.953125 Z M 7.980469 12.582031 C 8.125 12.59375 8.144531 12.601562 8.378906 12.765625 C 8.511719 12.859375 8.75 13.023438 8.902344 13.125 C 9.226562 13.339844 9.535156 13.570312 9.71875 13.726562 C 9.789062 13.785156 9.917969 13.894531 10.007812 13.96875 C 10.234375 14.152344 10.332031 14.253906 10.414062 14.402344 C 10.453125 14.472656 10.539062 14.605469 10.613281 14.695312 C 10.800781 14.933594 10.828125 14.996094 10.929688 15.371094 C 11.050781 15.824219 11.070312 16.015625 11.042969 16.351562 C 11.011719 16.6875 10.953125 16.914062 10.835938 17.164062 C 10.527344 17.808594 9.914062 18.285156 9 18.59375 C 7.933594 18.957031 6.5625 18.972656 5.269531 18.640625 C 4.316406 18.398438 3.558594 18.003906 3.09375 17.519531 C 2.578125 16.976562 2.335938 16.386719 2.335938 15.6875 C 2.335938 15.152344 2.449219 14.738281 2.703125 14.34375 C 2.875 14.082031 3.203125 13.746094 3.472656 13.566406 C 4.253906 13.039062 5.492188 12.679688 6.8125 12.589844 C 7.15625 12.566406 7.789062 12.5625 7.980469 12.582031 Z M 7.980469 12.582031 "/>
<path style=" stroke:none;fill-rule:nonzero;fill:rgb(0%,0%,0%);fill-opacity:1;" d="M 16.136719 1.554688 L 16.136719 3.085938 L 12.898438 3.085938 L 12.898438 4.628906 L 16.136719 4.628906 L 16.144531 7.707031 L 16.957031 7.714844 L 17.765625 7.71875 L 17.765625 4.628906 L 21 4.628906 L 21 3.085938 L 17.765625 3.085938 L 17.765625 0.0234375 L 16.136719 0.0234375 Z M 16.136719 1.554688 "/>
</g>
</svg>
