<?xml version="1.0" encoding="UTF-8"?>
<svg xmlns="http://www.w3.org/2000/svg" xmlns:xlink="http://www.w3.org/1999/xlink" width="24px" height="24px" viewBox="0 0 24 24" version="1.1">
<g id="surface1">
<path style=" stroke:none;fill-rule:nonzero;fill:rgb(0%,0%,0%);fill-opacity:1;" d="M 4.070312 7.5 L 19.847656 7.5 C 20.675781 7.5 21.347656 6.828125 21.347656 6 C 21.347656 5.171875 20.675781 4.5 19.847656 4.5 L 4.070312 4.5 C 3.242188 4.5 2.570312 5.171875 2.570312 6 C 2.570312 6.828125 3.242188 7.5 4.070312 7.5 Z M 19.847656 10.539062 L 4.070312 10.539062 C 3.242188 10.539062 2.570312 11.210938 2.570312 12.039062 C 2.570312 12.867188 3.242188 13.539062 4.070312 13.539062 L 19.847656 13.539062 C 20.675781 13.539062 21.347656 12.867188 21.347656 12.039062 C 21.347656 11.210938 20.675781 10.539062 19.847656 10.539062 Z M 19.847656 16.503906 L 4.070312 16.503906 C 3.242188 16.503906 2.570312 17.175781 2.570312 18.003906 C 2.570312 18.832031 3.242188 19.503906 4.070312 19.503906 L 19.847656 19.503906 C 20.675781 19.503906 21.347656 18.832031 21.347656 18.003906 C 21.347656 17.175781 20.675781 16.503906 19.847656 16.503906 Z M 19.847656 16.503906 "/>
</g>
</svg>
