<?xml version="1.0" encoding="UTF-8"?>
<svg xmlns="http://www.w3.org/2000/svg" xmlns:xlink="http://www.w3.org/1999/xlink" width="26px" height="23px" viewBox="0 0 25 23" version="1.1">
<g id="surface1">
<path style=" stroke:none;fill-rule:nonzero;fill:rgb(0%,0%,0%);fill-opacity:1;" d="M 12.496094 2.910156 C 13.582031 1.625 14.8125 0.808594 16.066406 0.382812 C 17.382812 -0.0625 18.726562 -0.0742188 19.945312 0.253906 C 21.179688 0.585938 22.289062 1.261719 23.152344 2.179688 C 24.289062 3.394531 25 5.027344 25 6.875 C 25 9.792969 23.65625 12.578125 21.457031 15.265625 C 19.394531 17.789062 16.5625 20.246094 13.398438 22.671875 C 12.871094 23.074219 12.183594 23.070312 11.667969 22.714844 L 11.667969 22.71875 L 11.660156 22.714844 L 11.65625 22.714844 L 11.613281 22.683594 C 10.707031 22.058594 9.835938 21.425781 9.007812 20.777344 C 8.1875 20.132812 7.382812 19.453125 6.605469 18.738281 C 2.5625 15.035156 0 10.980469 0 6.875 C 0 4.996094 0.703125 3.367188 1.816406 2.164062 C 2.679688 1.234375 3.796875 0.566406 5.027344 0.238281 C 6.246094 -0.078125 7.589844 -0.0585938 8.90625 0.386719 C 10.171875 0.8125 11.410156 1.628906 12.496094 2.910156 Z M 16.988281 3.40625 C 15.875 3.785156 14.753906 4.71875 13.835938 6.371094 C 13.707031 6.625 13.507812 6.84375 13.257812 6.996094 C 12.527344 7.429688 11.605469 7.167969 11.191406 6.414062 C 10.277344 4.742188 9.125 3.796875 7.980469 3.410156 C 7.222656 3.15625 6.464844 3.144531 5.765625 3.324219 L 5.761719 3.324219 C 5.082031 3.5 4.46875 3.871094 3.992188 4.378906 C 3.40625 5.007812 3.042969 5.875 3.042969 6.875 C 3.042969 9.972656 5.199219 13.230469 8.597656 16.34375 C 9.261719 16.957031 10.011719 17.585938 10.824219 18.222656 C 11.351562 18.640625 11.910156 19.058594 12.460938 19.449219 C 15.113281 17.367188 17.453125 15.285156 19.152344 13.199219 C 20.898438 11.070312 21.960938 8.953125 21.960938 6.875 C 21.960938 5.902344 21.585938 5.046875 20.992188 4.40625 C 20.507812 3.894531 19.886719 3.511719 19.203125 3.328125 C 18.511719 3.140625 17.75 3.148438 16.988281 3.40625 Z M 16.988281 3.40625 "/>
</g>
</svg>
